<?xml version="1.0" encoding="utf-8"?>
<!-- Generator: Adobe Illustrator 22.0.1, SVG Export Plug-In . SVG Version: 6.00 Build 0)  -->
<svg version="1.1" id="Layer_1" xmlns="http://www.w3.org/2000/svg" xmlns:xlink="http://www.w3.org/1999/xlink" x="0px" y="0px"
	 viewBox="0 0 265 265" style="enable-background:new 0 0 265 265;" xml:space="preserve">
<style type="text/css">
	.st0{fill:#E2E6F1;}
	.st1{fill:#76819F;}
	.st2{fill:#A3ACBF;}
	.st3{fill:#2D2D2D;}
	.st4{fill:#FFFFFF;}
	.st5{fill:#70BF43;}
	.st6{fill:#73D3FF;}
	.st7{fill:#F9C160;}
	.st8{fill:#FF5284;}
	.st9{fill:#D1DAED;}
	.st10{fill:#EEF6E9;}
	.st11{fill:#F7AB3E;}
	.st12{fill:#FF3176;}
	.st13{fill:#342C37;}
	.st14{fill:#F35878;}
	.st15{fill:#F1C1B5;}
	.st16{fill:#8E603F;}
	.st17{fill:#6C7BF0;}
</style>
<g>
	<g>
		<g>
			<g>
				<g>
					<path class="st0" d="M66.3623581,137.1738281h-2.5c-0.4140625,0-0.75-0.3359375-0.75-0.75s0.3359375-0.75,0.75-0.75h2.5
						c0.4140625,0,0.75,0.3359375,0.75,0.75S66.7764206,137.1738281,66.3623581,137.1738281z"/>
				</g>
				<g>
					<path class="st0" d="M59.7998581,137.1738281h-4.0634766c-0.4140625,0-0.75-0.3359375-0.75-0.75s0.3359375-0.75,0.75-0.75
						h4.0634766c0.4140625,0,0.75,0.3359375,0.75,0.75S60.2139206,137.1738281,59.7998581,137.1738281z M51.6738815,137.1738281
						H47.610405c-0.4140625,0-0.75-0.3359375-0.75-0.75s0.3359375-0.75,0.75-0.75h4.0634766c0.4140625,0,0.75,0.3359375,0.75,0.75
						S52.087944,137.1738281,51.6738815,137.1738281z"/>
				</g>
				<g>
					<path class="st0" d="M43.547905,137.1738281h-2.5c-0.4140625,0-0.75-0.3359375-0.75-0.75v-2.5
						c0-0.4140625,0.3359375-0.75,0.75-0.75s0.75,0.3359375,0.75,0.75v1.75h1.75c0.4140625,0,0.75,0.3359375,0.75,0.75
						S43.9619675,137.1738281,43.547905,137.1738281z"/>
				</g>
				<g>
					<path class="st0" d="M41.047905,129.7314453c-0.4140625,0-0.75-0.3359375-0.75-0.75v-4.9414063
						c0-0.4140625,0.3359375-0.75,0.75-0.75s0.75,0.3359375,0.75,0.75v4.9414063
						C41.797905,129.3955078,41.4619675,129.7314453,41.047905,129.7314453z M41.047905,119.8476563
						c-0.4140625,0-0.75-0.3359375-0.75-0.75V114.15625c0-0.4140625,0.3359375-0.75,0.75-0.75s0.75,0.3359375,0.75,0.75v4.9414063
						C41.797905,119.5117188,41.4619675,119.8476563,41.047905,119.8476563z M41.047905,109.9638672
						c-0.4140625,0-0.75-0.3359375-0.75-0.75v-4.9414063c0-0.4140625,0.3359375-0.75,0.75-0.75s0.75,0.3359375,0.75,0.75v4.9414063
						C41.797905,109.6279297,41.4619675,109.9638672,41.047905,109.9638672z M41.047905,100.0800781
						c-0.4140625,0-0.75-0.3359375-0.75-0.75v-4.9414063c0-0.4140625,0.3359375-0.75,0.75-0.75s0.75,0.3359375,0.75,0.75v4.9414063
						C41.797905,99.7441406,41.4619675,100.0800781,41.047905,100.0800781z M41.047905,90.1962891
						c-0.4140625,0-0.75-0.3359375-0.75-0.75v-4.9414063c0-0.4140625,0.3359375-0.75,0.75-0.75s0.75,0.3359375,0.75,0.75v4.9414063
						C41.797905,89.8603516,41.4619675,90.1962891,41.047905,90.1962891z"/>
				</g>
				<g>
					<path class="st0" d="M41.047905,80.3134766c-0.4140625,0-0.75-0.3359375-0.75-0.75v-2.5c0-0.4140625,0.3359375-0.75,0.75-0.75
						s0.75,0.3359375,0.75,0.75v2.5C41.797905,79.9775391,41.4619675,80.3134766,41.047905,80.3134766z"/>
				</g>
			</g>
		</g>
		<g>
			<g>
				<path class="st0" d="M41.047905,77.8642578c-6.5615234,0-11.9003887-5.2363281-11.9003887-11.6728516
					c0-6.4326172,5.3388653-11.6660156,11.9003887-11.6660156S52.947319,59.7587891,52.947319,66.1914063
					C52.947319,72.6279297,47.6094284,77.8642578,41.047905,77.8642578z M41.047905,56.0253906
					c-5.734375,0-10.4003887,4.5605469-10.4003887,10.1660156c0,5.609375,4.6660137,10.1728516,10.4003887,10.1728516
					S51.447319,71.8007813,51.447319,66.1914063C51.447319,60.5859375,46.78228,56.0253906,41.047905,56.0253906z"/>
			</g>
			<g>
				<path class="st0" d="M41.047905,77.8642578c-2.9951172,0-5.2539063-5.0185547-5.2539063-11.6728516
					c0-6.6503906,2.2587891-11.6660156,5.2539063-11.6660156s5.2529297,5.015625,5.2529297,11.6660156
					C46.3008347,72.8457031,44.0430222,77.8642578,41.047905,77.8642578z M41.047905,56.0253906
					c-1.7753906,0-3.7539063,4.1748047-3.7539063,10.1660156c0,5.9951172,1.9785156,10.1728516,3.7539063,10.1728516
					s3.7529297-4.1777344,3.7529297-10.1728516C44.8008347,60.2001953,42.8232956,56.0253906,41.047905,56.0253906z"/>
			</g>
			<g>
				<path class="st0" d="M50.8203659,61.7880859H31.6240788c-0.4140625,0-0.75-0.3359375-0.75-0.75s0.3359375-0.75,0.75-0.75
					h19.1962872c0.4140625,0,0.75,0.3359375,0.75,0.75S51.2344284,61.7880859,50.8203659,61.7880859z"/>
			</g>
			<g>
				<path class="st0" d="M52.197319,66.9453125H29.8975163c-0.4140625,0-0.75-0.3359375-0.75-0.75s0.3359375-0.75,0.75-0.75
					H52.197319c0.4140625,0,0.75,0.3359375,0.75,0.75S52.6113815,66.9453125,52.197319,66.9453125z"/>
			</g>
			<g>
				<path class="st0" d="M50.8203659,72.1015625H31.6240788c-0.4140625,0-0.75-0.3359375-0.75-0.75s0.3359375-0.75,0.75-0.75
					h19.1962872c0.4140625,0,0.75,0.3359375,0.75,0.75S51.2344284,72.1015625,50.8203659,72.1015625z"/>
			</g>
		</g>
	</g>
	<g>
		<g>
			<g>
				<path class="st0" d="M201.9121704,137.6826172h-2.5c-0.4140625,0-0.75-0.3359375-0.75-0.75s0.3359375-0.75,0.75-0.75h2.5
					c0.4140625,0,0.75,0.3359375,0.75,0.75S202.3262329,137.6826172,201.9121704,137.6826172z"/>
			</g>
			<g>
				<path class="st0" d="M217.7383423,137.6826172h-3.9570313c-0.4140625,0-0.75-0.3359375-0.75-0.75s0.3359375-0.75,0.75-0.75
					h3.9570313c0.4140625,0,0.75,0.3359375,0.75,0.75S218.1524048,137.6826172,217.7383423,137.6826172z M209.8252563,137.6826172
					h-3.9570313c-0.4140625,0-0.75-0.3359375-0.75-0.75s0.3359375-0.75,0.75-0.75h3.9570313c0.4140625,0,0.75,0.3359375,0.75,0.75
					S210.2393188,137.6826172,209.8252563,137.6826172z"/>
			</g>
			<g>
				<path class="st0" d="M224.194397,137.6826172h-2.5c-0.4140625,0-0.75-0.3359375-0.75-0.75s0.3359375-0.75,0.75-0.75h1.75v-1.75
					c0-0.4140625,0.3359375-0.75,0.75-0.75s0.75,0.3359375,0.75,0.75v2.5
					C224.944397,137.3466797,224.6084595,137.6826172,224.194397,137.6826172z"/>
			</g>
			<g>
				<path class="st0" d="M224.194397,130.2412109c-0.4140625,0-0.75-0.3359375-0.75-0.75v-4.9414063
					c0-0.4140625,0.3359375-0.75,0.75-0.75s0.75,0.3359375,0.75,0.75v4.9414063
					C224.944397,129.9052734,224.6084595,130.2412109,224.194397,130.2412109z M224.194397,120.3574219
					c-0.4140625,0-0.75-0.3359375-0.75-0.75v-4.9414063c0-0.4140625,0.3359375-0.75,0.75-0.75s0.75,0.3359375,0.75,0.75v4.9414063
					C224.944397,120.0214844,224.6084595,120.3574219,224.194397,120.3574219z M224.194397,110.4736328
					c-0.4140625,0-0.75-0.3359375-0.75-0.75v-4.9414063c0-0.4140625,0.3359375-0.75,0.75-0.75s0.75,0.3359375,0.75,0.75v4.9414063
					C224.944397,110.1376953,224.6084595,110.4736328,224.194397,110.4736328z M224.194397,100.5898438
					c-0.4140625,0-0.75-0.3359375-0.75-0.75v-4.9414063c0-0.4140625,0.3359375-0.75,0.75-0.75s0.75,0.3359375,0.75,0.75v4.9414063
					C224.944397,100.2539063,224.6084595,100.5898438,224.194397,100.5898438z M224.194397,90.7060547
					c-0.4140625,0-0.75-0.3359375-0.75-0.75v-4.9414063c0-0.4140625,0.3359375-0.75,0.75-0.75s0.75,0.3359375,0.75,0.75v4.9414063
					C224.944397,90.3701172,224.6084595,90.7060547,224.194397,90.7060547z"/>
			</g>
			<g>
				<path class="st0" d="M224.194397,80.8222656c-0.4140625,0-0.75-0.3359375-0.75-0.75v-2.5c0-0.4140625,0.3359375-0.75,0.75-0.75
					s0.75,0.3359375,0.75,0.75v2.5C224.944397,80.4863281,224.6084595,80.8222656,224.194397,80.8222656z"/>
			</g>
		</g>
		<g>
			<path class="st0" d="M223.859436,78c-5.6181641,0-10.1894531-4.5712891-10.1894531-10.1894531
				c0-5.6123047,4.5712891-10.1777344,10.1894531-10.1777344c0.4140625,0,0.75,0.3359375,0.75,0.75v8.6777344h8.6894531
				c0.4140625,0,0.75,0.3359375,0.75,0.75C234.0488892,73.4287109,229.4776001,78,223.859436,78z M223.109436,59.1650391
				c-4.4414063,0.3808594-7.9394531,4.1132813-7.9394531,8.6455078c0,4.7910156,3.8984375,8.6894531,8.6894531,8.6894531
				c4.5390625,0,8.2753906-3.4980469,8.6572266-7.9394531h-8.6572266c-0.4140625,0-0.75-0.3359375-0.75-0.75V59.1650391z"/>
		</g>
		<g>
			<path class="st0" d="M223.859436,78c-5.6181641,0-10.1894531-4.5712891-10.1894531-10.1894531
				c0-5.6123047,4.5712891-10.1777344,10.1894531-10.1777344c0.4140625,0,0.75,0.3359375,0.75,0.75v8.6777344h8.6894531
				c0.4140625,0,0.75,0.3359375,0.75,0.75C234.0488892,73.4287109,229.4776001,78,223.859436,78z M223.109436,59.1650391
				c-4.4414063,0.3808594-7.9394531,4.1132813-7.9394531,8.6455078c0,4.7910156,3.8984375,8.6894531,8.6894531,8.6894531
				c4.5390625,0,8.2753906-3.4980469,8.6572266-7.9394531h-8.6572266c-0.4140625,0-0.75-0.3359375-0.75-0.75V59.1650391z"/>
		</g>
		<g>
			<path class="st0" d="M237.5176392,64.9433594h-9.4394531c-0.4140625,0-0.75-0.3359375-0.75-0.75v-9.4267578
				c0-0.4140625,0.3359375-0.75,0.75-0.75c5.6181641,0,10.1894531,4.5654297,10.1894531,10.1767578
				C238.2676392,64.6074219,237.9317017,64.9433594,237.5176392,64.9433594z M228.828186,63.4433594h7.9072266
				c-0.3603516-4.1875-3.7128906-7.5351563-7.9072266-7.8945313V63.4433594z"/>
		</g>
	</g>
	<g>
		<g>
			<g>
				<path class="st0" d="M208.7257233,213.7957458c0,7.9007721-6.3985443,14.2993011-14.2993164,14.2993011H70.5729675
					c-7.889637,0-14.2993088-6.3985291-14.2993088-14.2993011H208.7257233z"/>
			</g>
			<g>
				<path class="st4" d="M154.1818237,213.7957458c0,3.6890869-2.9876556,6.6767273-6.6767426,6.6767273h-30.010788
					c-3.6838837,0-6.6767349-2.9876404-6.6767349-6.6767273H154.1818237z"/>
			</g>
			<g>
				<path class="st9" d="M199.4116821,134.0093384v79.7864075H65.5959625v-79.7864075
					c0-4.3020325,3.4874878-7.7895126,7.7895203-7.7895126h118.2366791
					C195.9241943,126.2198257,199.4116821,129.7073059,199.4116821,134.0093384z"/>
			</g>
			<g>
				<rect x="75.610672" y="136.2349396" class="st4" width="113.7859116" height="77.5608063"/>
			</g>
			<g>
				<path class="st3" d="M194.4268188,228.8447266H70.5732956c-8.2988281,0-15.0498047-6.7509766-15.0498047-15.0488281
					c0-0.4140625,0.3359375-0.75,0.75-0.75H208.725647c0.4140625,0,0.75,0.3359375,0.75,0.75
					C209.475647,222.09375,202.7246704,228.8447266,194.4268188,228.8447266z M57.0439987,214.5458984
					c0.390625,7.1230469,6.3095703,12.7988281,13.5292969,12.7988281h123.8535233
					c7.21875,0,13.1376953-5.6757813,13.5283203-12.7988281H57.0439987z"/>
			</g>
			<g>
				<path class="st3" d="M147.5049438,221.2226563H117.494194c-4.0947266,0-7.4267578-3.3320313-7.4267578-7.4267578
					c0-0.4140625,0.3359375-0.75,0.75-0.75h43.3642654c0.4140625,0,0.75,0.3359375,0.75,0.75
					C154.9317017,217.890625,151.5996704,221.2226563,147.5049438,221.2226563z M111.6143112,214.5458984
					c0.3701172,2.9150391,2.8662109,5.1767578,5.8798828,5.1767578h30.0107498c3.0136719,0,5.5097656-2.2617188,5.8798828-5.1767578
					H111.6143112z"/>
			</g>
			<g>
				<path class="st3" d="M199.4121704,214.5458984H65.5957565c-0.4140625,0-0.75-0.3359375-0.75-0.75v-79.7861328
					c0-4.7089844,3.8310547-8.5400391,8.5400391-8.5400391h118.2363358c4.7089844,0,8.5400391,3.8310547,8.5400391,8.5400391
					v79.7861328C200.1621704,214.2099609,199.8262329,214.5458984,199.4121704,214.5458984z M66.3457565,213.0458984h132.3164063
					v-79.0361328c0-3.8818359-3.1582031-7.0400391-7.0400391-7.0400391H73.3857956
					c-3.8818359,0-7.0400391,3.1582031-7.0400391,7.0400391V213.0458984z"/>
			</g>
			<g>
				<path class="st3" d="M189.3965454,214.5458984H75.610405c-0.4140625,0-0.75-0.3359375-0.75-0.75v-77.5605469
					c0-0.4140625,0.3359375-0.75,0.75-0.75h113.7861404c0.4140625,0,0.75,0.3359375,0.75,0.75v77.5605469
					C190.1465454,214.2099609,189.8106079,214.5458984,189.3965454,214.5458984z M76.360405,213.0458984h112.2861404v-76.0605469
					H76.360405V213.0458984z"/>
			</g>
		</g>
		<g>
			<g>
				<rect x="95.421051" y="102.0673828" class="st11" width="74.15728" height="8.0114508"/>
			</g>
			<g>
				<polygon class="st7" points="166.7024231,110.0788269 166.7024231,131.7528687 140.5111389,154.7580719 
					140.5111389,175.4830933 124.1801071,175.4830933 124.1801071,154.7580719 98.2969513,131.7528687 98.2969513,110.0788269 				
					"/>
			</g>
			<g>
				<path class="st3" d="M140.5108032,176.2333984h-16.3310623c-0.4140625,0-0.75-0.3359375-0.75-0.75v-20.3886719
					l-25.6308594-22.78125c-0.1601563-0.1425781-0.2519531-0.3466797-0.2519531-0.5605469v-21.6738281
					c0-0.4140625,0.3359375-0.75,0.75-0.75h68.4052811c0.4140625,0,0.75,0.3359375,0.75,0.75v21.6738281
					c0,0.2158203-0.0927734,0.4208984-0.2548828,0.5634766l-25.9365234,22.78125v20.3857422
					C141.2608032,175.8974609,140.9248657,176.2333984,140.5108032,176.2333984z M124.9297409,174.7333984h14.8310623v-19.9755859
					c0-0.2158203,0.0927734-0.4208984,0.2548828-0.5634766l25.9365234-22.78125v-20.5839844H99.0469284v20.5869141
					l25.6308594,22.78125c0.1601563,0.1425781,0.2519531,0.3466797,0.2519531,0.5605469V174.7333984z"/>
			</g>
			<g>
				<path class="st3" d="M169.578186,110.8291016H95.4209518c-0.4140625,0-0.75-0.3359375-0.75-0.75v-8.0117188
					c0-0.4140625,0.3359375-0.75,0.75-0.75h74.1572342c0.4140625,0,0.75,0.3359375,0.75,0.75v8.0117188
					C170.328186,110.4931641,169.9922485,110.8291016,169.578186,110.8291016z M96.1709518,109.3291016h72.6572342v-6.5117188
					H96.1709518V109.3291016z"/>
			</g>
		</g>
		<g>
			<g>
				<g>
					<rect x="128.000946" y="182.7446594" class="st5" width="7.7700195" height="25.416666"/>
				</g>
				<g>
					<path class="st3" d="M135.7705688,208.9111328h-7.7695313c-0.4140701,0-0.7500076-0.3359375-0.7500076-0.75v-25.4160156
						c0-0.4140625,0.3359375-0.75,0.7500076-0.75h7.7695313c0.4140625,0,0.75,0.3359375,0.75,0.75v25.4160156
						C136.5205688,208.5751953,136.1846313,208.9111328,135.7705688,208.9111328z M128.7510376,207.4111328h6.2695313v-23.9160156
						h-6.2695313V207.4111328z"/>
				</g>
			</g>
			<g>
				<g>
					<g>
						<rect x="114.5009537" y="192.2658081" class="st6" width="7.7700195" height="15.8955126"/>
					</g>
					<g>
						<path class="st3" d="M122.2705612,208.9111328H114.50103c-0.4140625,0-0.75-0.3359375-0.75-0.75V192.265625
							c0-0.4140625,0.3359375-0.75,0.75-0.75h7.7695313c0.4140625,0,0.75,0.3359375,0.75,0.75v15.8955078
							C123.0205612,208.5751953,122.6846237,208.9111328,122.2705612,208.9111328z M115.25103,207.4111328h6.2695313V193.015625
							H115.25103V207.4111328z"/>
					</g>
				</g>
				<g>
					<g>
						<rect x="141.500946" y="192.2658081" class="st8" width="7.7700195" height="15.8955126"/>
					</g>
					<g>
						<path class="st3" d="M149.2705688,208.9111328h-7.7695313c-0.4140625,0-0.75-0.3359375-0.75-0.75V192.265625
							c0-0.4140625,0.3359375-0.75,0.75-0.75h7.7695313c0.4140625,0,0.75,0.3359375,0.75,0.75v15.8955078
							C150.0205688,208.5751953,149.6846313,208.9111328,149.2705688,208.9111328z M142.2510376,207.4111328h6.2695313V193.015625
							h-6.2695313V207.4111328z"/>
					</g>
				</g>
			</g>
		</g>
		<g>
			<g>
				
					<ellipse transform="matrix(0.1601821 -0.9870875 0.9870875 0.1601821 31.4649963 198.6919708)" class="st6" cx="132.4996948" cy="80.8546524" rx="14.9950495" ry="14.9949942"/>
			</g>
			<g>
				<path class="st7" d="M147.4896851,80.7846375v0.0700073c0,8.2800293-6.710022,15-14.9899902,15
					c-4.1400146,0-7.8900223-1.6799927-10.5999832-4.3999634l10.5999832-10.6000366L147.4896851,80.7846375z"/>
			</g>
			<g>
				<path class="st8" d="M147.4896851,80.8546448h-14.9899902v-15
					C140.7796631,65.8546448,147.4896851,72.5746765,147.4896851,80.8546448z"/>
			</g>
			<g>
				<path class="st3" d="M132.500061,96.5996094c-8.6816483,0-15.7451248-7.0634766-15.7451248-15.7451172
					s7.0634766-15.7451172,15.7451248-15.7451172s15.7441406,7.0634766,15.7441406,15.7451172
					S141.1817017,96.5996094,132.500061,96.5996094z M132.500061,66.609375c-7.8544998,0-14.2451248,6.390625-14.2451248,14.2451172
					s6.390625,14.2451172,14.2451248,14.2451172s14.2441406-6.390625,14.2441406-14.2451172
					S140.3545532,66.609375,132.500061,66.609375z"/>
			</g>
			<g>
				<path class="st3" d="M147.4893188,81.6044922H132.500061c-0.4140625,0-0.75-0.3359375-0.75-0.75v-15
					c0-0.4140625,0.3359375-0.75,0.75-0.75c8.6787109,0,15.7392578,7.0654297,15.7392578,15.75
					C148.2393188,81.2685547,147.9033813,81.6044922,147.4893188,81.6044922z M133.250061,80.1044922h13.4697266
					c-0.3779297-7.2617188-6.2138672-13.1015625-13.4697266-13.4804688V80.1044922z"/>
			</g>
			<g>
				<path class="st3" d="M132.500061,96.6044922c-4.2099609,0-8.1630936-1.640625-11.1318436-4.6201172
					c-0.2919922-0.2929688-0.2919922-0.7675781,0.0009766-1.0595703l10.6005936-10.6005859
					c0.1396484-0.1396484,0.3291016-0.21875,0.5263672-0.2197266l14.9892578-0.0703125c0.0019531,0,0.0029297,0,0.0039063,0
					c0.1982422,0,0.3886719,0.078125,0.5292969,0.21875c0.1416016,0.140625,0.2207031,0.3320313,0.2207031,0.53125v0.0703125
					C148.2393188,89.5390625,141.178772,96.6044922,132.500061,96.6044922z M122.9727097,91.4423828
					c2.6152344,2.3671875,5.9697342,3.6621094,9.5273514,3.6621094c7.6220703,0,13.8652344-6.0253906,14.2226563-13.5664063
					l-13.9101563,0.0654297L122.9727097,91.4423828z"/>
			</g>
		</g>
		<g>
			<path class="st3" d="M106.4063034,146.9951172h-24c-0.4140625,0-0.75-0.3359375-0.75-0.75s0.3359375-0.75,0.75-0.75h24
				c0.4140625,0,0.75,0.3359375,0.75,0.75S106.8203659,146.9951172,106.4063034,146.9951172z"/>
		</g>
		<g>
			<path class="st3" d="M106.4063034,153.2451172h-24c-0.4140625,0-0.75-0.3359375-0.75-0.75s0.3359375-0.75,0.75-0.75h24
				c0.4140625,0,0.75,0.3359375,0.75,0.75S106.8203659,153.2451172,106.4063034,153.2451172z"/>
		</g>
		<g>
			<path class="st3" d="M98.2969284,159.4951172h-15.890625c-0.4140625,0-0.75-0.3359375-0.75-0.75s0.3359375-0.75,0.75-0.75
				h15.890625c0.4140625,0,0.75,0.3359375,0.75,0.75S98.7109909,159.4951172,98.2969284,159.4951172z"/>
		</g>
	</g>
	<g>
		<g>
			<g>
				<rect x="27.1331081" y="171.2238159" class="st0" width="63.1606979" height="57.0883904"/>
			</g>
			<g>
				<rect x="54.2757721" y="176.8280334" class="st6" width="5.7252202" height="17.6349106"/>
			</g>
			<g>
				<rect x="43.7966766" y="187.5188599" class="st7" width="5.7252202" height="6.9440708"/>
			</g>
			<g>
				<path class="st3" d="M90.2939987,229.0625H27.1328678c-0.4140625,0-0.75-0.3359375-0.75-0.75v-57.0888672
					c0-0.4140625,0.3359375-0.75,0.75-0.75h63.1611328c0.4140625,0,0.75,0.3359375,0.75,0.75V228.3125
					C91.0439987,228.7265625,90.7080612,229.0625,90.2939987,229.0625z M27.8828678,227.5625h61.6611328v-55.5888672H27.8828678
					V227.5625z"/>
			</g>
			<g>
				<path class="st3" d="M60.00103,195.2128906H54.275444c-0.4140625,0-0.75-0.3359375-0.75-0.75V176.828125
					c0-0.4140625,0.3359375-0.75,0.75-0.75H60.00103c0.4140625,0,0.75,0.3359375,0.75,0.75v17.6347656
					C60.75103,194.8769531,60.4150925,195.2128906,60.00103,195.2128906z M55.025444,193.7128906H59.25103V177.578125H55.025444
					V193.7128906z"/>
			</g>
			<g>
				<path class="st3" d="M49.5215378,195.2128906h-5.7246094c-0.4140625,0-0.75-0.3359375-0.75-0.75v-6.9443359
					c0-0.4140625,0.3359375-0.75,0.75-0.75h5.7246094c0.4140625,0,0.75,0.3359375,0.75,0.75v6.9443359
					C50.2715378,194.8769531,49.9356003,195.2128906,49.5215378,195.2128906z M44.5469284,193.7128906h4.2246094v-5.4443359
					h-4.2246094V193.7128906z"/>
			</g>
			<g>
				<path class="st3" d="M85.447319,181.9414063H64.8467331c-0.4140625,0-0.75-0.3359375-0.75-0.75s0.3359375-0.75,0.75-0.75
					H85.447319c0.4140625,0,0.75,0.3359375,0.75,0.75S85.8613815,181.9414063,85.447319,181.9414063z"/>
			</g>
			<g>
				<path class="st3" d="M85.447319,186.3046875H64.8467331c-0.4140625,0-0.75-0.3359375-0.75-0.75s0.3359375-0.75,0.75-0.75
					H85.447319c0.4140625,0,0.75,0.3359375,0.75,0.75S85.8613815,186.3046875,85.447319,186.3046875z"/>
			</g>
			<g>
				<path class="st3" d="M85.447319,190.6679688H64.8467331c-0.4140625,0-0.75-0.3359375-0.75-0.75s0.3359375-0.75,0.75-0.75
					H85.447319c0.4140625,0,0.75,0.3359375,0.75,0.75S85.8613815,190.6679688,85.447319,190.6679688z"/>
			</g>
			<g>
				<path class="st3" d="M85.447319,195.03125H64.8467331c-0.4140625,0-0.75-0.3359375-0.75-0.75s0.3359375-0.75,0.75-0.75
					H85.447319c0.4140625,0,0.75,0.3359375,0.75,0.75S85.8613815,195.03125,85.447319,195.03125z"/>
			</g>
			<g>
				<g>
					<g>
						<path class="st6" d="M65.6473618,211.6440277c0-3.907486,3.1694794-7.0769806,7.076973-7.0769806v-5.6463928
							c-7.0264359,0-12.7233429,5.6969604-12.7233429,12.7233734H65.6473618z"/>
					</g>
				</g>
				<g>
					<g>
						<path class="st7" d="M60.0009918,211.6440277c0,7.0264282,5.696907,12.718338,12.7233429,12.718338
							c7.0264282,0,12.7233353-5.6919098,12.7233353-12.718338H79.8013c0,3.9075165-3.1694794,7.0718994-7.0769653,7.0718994
							c-3.9074936,0-7.076973-3.1643829-7.076973-7.0718994H60.0009918z"/>
					</g>
				</g>
				<g>
					<g>
						<path class="st8" d="M85.44767,211.6440277c0-7.026413-5.696907-12.7233734-12.7233353-12.7233734v5.6463928
							c3.907486,0,7.0769653,3.1694946,7.0769653,7.0769806H85.44767z"/>
					</g>
				</g>
				<g>
					<g>
						<path class="st3" d="M65.6475143,212.3935547H60.00103c-0.4140625,0-0.75-0.3359375-0.75-0.75
							c0-7.4287109,6.0439453-13.4726563,13.4736328-13.4726563c0.4140625,0,0.75,0.3359375,0.75,0.75v5.6464844
							c0,0.4140625-0.3359375,0.75-0.75,0.75c-3.4892578,0-6.3271484,2.8378906-6.3271484,6.3261719
							C66.3975143,212.0576172,66.0615768,212.3935547,65.6475143,212.3935547z M60.7744675,210.8935547h4.1591797
							c0.3544922-3.7177734,3.3222656-6.6855469,7.0410156-7.0410156v-4.1582031
							C65.9688034,200.0673828,61.1475143,204.8876953,60.7744675,210.8935547z"/>
					</g>
				</g>
				<g>
					<g>
						<path class="st3" d="M72.7246628,225.1123047c-7.4296875,0-13.4736328-6.0419922-13.4736328-13.46875
							c0-0.4140625,0.3359375-0.75,0.75-0.75h5.6464844c0.4140625,0,0.75,0.3359375,0.75,0.75
							c0,3.4863281,2.8378906,6.3222656,6.3271484,6.3222656c3.4882813,0,6.3261719-2.8359375,6.3261719-6.3222656
							c0-0.4140625,0.3359375-0.75,0.75-0.75h5.6464844c0.4140625,0,0.75,0.3359375,0.75,0.75
							C86.197319,219.0703125,80.1533737,225.1123047,72.7246628,225.1123047z M60.7744675,212.3935547
							c0.3876953,6.2519531,5.5996094,11.21875,11.9501953,11.21875c6.3496094,0,11.5615234-4.9667969,11.9492188-11.21875
							h-4.1591797c-0.3789063,3.9628906-3.7275391,7.0722656-7.7900391,7.0722656s-7.4121094-3.109375-7.7910156-7.0722656
							H60.7744675z"/>
					</g>
				</g>
				<g>
					<g>
						<path class="st3" d="M85.447319,212.3935547h-5.6464844c-0.4140625,0-0.75-0.3359375-0.75-0.75
							c0-3.4882813-2.8378906-6.3261719-6.3261719-6.3261719c-0.4140625,0-0.75-0.3359375-0.75-0.75v-5.6464844
							c0-0.4140625,0.3359375-0.75,0.75-0.75c7.4287109,0,13.4726563,6.0439453,13.4726563,13.4726563
							C86.197319,212.0576172,85.8613815,212.3935547,85.447319,212.3935547z M80.5147018,210.8935547h4.1591797
							c-0.3730469-6.0058594-5.1933594-10.8261719-11.1992188-11.1992188v4.1591797
							C77.1924362,204.2080078,80.1602097,207.1757813,80.5147018,210.8935547z"/>
					</g>
				</g>
			</g>
			<g>
				<g>
					<path class="st3" d="M54.0967331,203.6650391H35.4121628c-0.4140625,0-0.75-0.3359375-0.75-0.75s0.3359375-0.75,0.75-0.75
						h18.6845703c0.4140625,0,0.75,0.3359375,0.75,0.75S54.5107956,203.6650391,54.0967331,203.6650391z"/>
				</g>
				<g>
					<path class="st3" d="M54.0967331,208.0283203H35.4121628c-0.4140625,0-0.75-0.3359375-0.75-0.75s0.3359375-0.75,0.75-0.75
						h18.6845703c0.4140625,0,0.75,0.3359375,0.75,0.75S54.5107956,208.0283203,54.0967331,208.0283203z"/>
				</g>
				<g>
					<path class="st3" d="M54.0967331,212.3916016H35.4121628c-0.4140625,0-0.75-0.3359375-0.75-0.75s0.3359375-0.75,0.75-0.75
						h18.6845703c0.4140625,0,0.75,0.3359375,0.75,0.75S54.5107956,212.3916016,54.0967331,212.3916016z"/>
				</g>
				<g>
					<path class="st3" d="M54.0967331,216.7548828H35.4121628c-0.4140625,0-0.75-0.3359375-0.75-0.75s0.3359375-0.75,0.75-0.75
						h18.6845703c0.4140625,0,0.75,0.3359375,0.75,0.75S54.5107956,216.7548828,54.0967331,216.7548828z"/>
				</g>
				<g>
					<path class="st3" d="M47.8047409,221.1181641H35.4121628c-0.4140625,0-0.75-0.3359375-0.75-0.75s0.3359375-0.75,0.75-0.75
						h12.3925781c0.4140625,0,0.75,0.3359375,0.75,0.75S48.2188034,221.1181641,47.8047409,221.1181641z"/>
				</g>
			</g>
		</g>
		<g>
			<g>
				<g>
					
						<rect x="20.802887" y="195.979538" transform="matrix(0.0029462 -0.9999956 0.9999956 0.0029462 -172.53508 224.261795)" class="st1" width="10.7826338" height="5.3468485"/>
				</g>
				<g>
					<path class="st3" d="M28.8516178,204.8017578c-0.0009766,0-0.0009766,0-0.0019531,0l-5.3466797-0.015625
						c-0.4140625-0.0009766-0.7490234-0.3378906-0.7480469-0.7519531l0.03125-10.7822266
						c0.0009766-0.1992188,0.0800781-0.3896484,0.2216797-0.5302734c0.1396484-0.1396484,0.3300781-0.2177734,0.5283203-0.2177734
						c0.0009766,0,0.0009766,0,0.0019531,0l5.3476563,0.015625c0.1992188,0.0009766,0.3896484,0.0800781,0.5302734,0.2216797
						c0.1396484,0.140625,0.21875,0.3320313,0.2177734,0.5302734l-0.0322266,10.7822266
						C29.6006413,204.4677734,29.2647038,204.8017578,28.8516178,204.8017578z M24.2568913,203.2880859l3.8466797,0.0117188
						l0.0283203-9.2822266l-3.8476563-0.0117188L24.2568913,203.2880859z"/>
				</g>
				<g>
					
						<ellipse transform="matrix(0.1329589 -0.9911215 0.9911215 0.1329589 -149.9384766 177.1229248)" class="st1" cx="26.2660713" cy="174.2593842" rx="21.7647018" ry="21.7664127"/>
				</g>
				<g>
					
						<ellipse transform="matrix(0.1329589 -0.9911215 0.9911215 0.1329589 -149.9384766 177.1229248)" class="st4" cx="26.2660713" cy="174.2593842" rx="16.433012" ry="16.4343033"/>
				</g>
				<g>
					<path class="st8" d="M31.9939365,222.4602203l0.0462017-15.6816254
						c0.0095482-3.2415619-2.6107159-5.8771667-5.8525257-5.8867798h-0.0000114
						c-3.2418098-0.0096283-5.8775558,2.6103821-5.8871078,5.851944l-0.0461998,15.6816406
						c-0.0095501,3.2415619,2.610714,5.8771667,5.8525238,5.8867798h0.0000114
						C29.3486366,228.3217926,31.9843845,225.7017822,31.9939365,222.4602203z"/>
				</g>
				<g>
					<path class="st3" d="M26.1240788,229.0625c-0.0068359,0-0.0126953,0-0.0195313,0
						c-3.6494141-0.0107422-6.6103516-2.9892578-6.6005859-6.6386719l0.046875-15.6816406
						c0.0048828-1.7685547,0.6982422-3.4287109,1.9521484-4.6757813c1.2529297-1.2460938,2.9023438-1.9482422,4.6865234-1.9248047
						c1.7685547,0.0048828,3.4287109,0.6992188,4.6757813,1.953125c1.2460918,1.2539063,1.9296856,2.9179688,1.9248028,4.6855469
						l-0.0458984,15.6816406l0,0C32.7334518,226.1054688,29.7656803,229.0625,26.1240788,229.0625z M26.1690006,201.6416016
						c-1.3613281,0-2.6425781,0.5283203-3.6083984,1.4882813c-0.9697266,0.9648438-1.5058594,2.2490234-1.5097656,3.6162109
						l-0.046875,15.6816406c-0.0078125,2.8232422,2.2822266,5.1259766,5.1044922,5.1347656c0.0058594,0,0.0107422,0,0.015625,0
						c2.8164063,0,5.1113281-2.2871094,5.1201172-5.1044922l0.0458984-15.6816406
						c0.0039063-1.3671875-0.5244141-2.6542969-1.4882813-3.6240234c-0.9648438-0.9707031-2.2490234-1.5068359-3.6162109-1.5107422
						C26.1797428,201.6416016,26.17486,201.6416016,26.1690006,201.6416016z M31.9941959,222.4599609h0.0097637H31.9941959z"/>
				</g>
				<g>
					<path class="st3" d="M26.26861,191.4423828c-0.0175781,0-0.0351563,0-0.0527344,0
						c-4.5898438-0.0136719-8.8994141-1.8144531-12.1367188-5.0693359
						c-3.2363281-3.2548828-5.0107422-7.5751953-4.9970703-12.1640625
						c0.0136719-4.5898438,1.8134766-8.8994141,5.0693359-12.1357422c3.2431641-3.2236328,7.5439453-4.9970703,12.1142578-4.9970703
						c0.0166016,0,0.0332031,0,0.0507813,0c9.475584,0.0283203,17.1611309,7.7597656,17.1337872,17.234375
						c-0.0136719,4.5888672-1.8134766,8.8984375-5.0693359,12.1347656
						C35.1377487,189.6689453,30.8379459,191.4423828,26.26861,191.4423828z M26.2656803,158.5761719
						c-4.171875,0-8.0966797,1.6191406-11.0566406,4.5615234c-2.9716797,2.953125-4.6152344,6.8867188-4.6269531,11.0751953
						c-0.0126953,4.1884766,1.6074219,8.1318359,4.5615234,11.1025391s6.8876953,4.6142578,11.0761719,4.6269531
						c0.0166016,0,0.0332031,0,0.0488281,0c4.1708984,0,8.0947247-1.6181641,11.0546856-4.5605469
						c2.9716797-2.9541016,4.6152344-6.8867188,4.6269531-11.0751953l0.75,0.0019531l-0.75-0.0019531
						c0.0253906-8.6474609-6.9902344-15.7041016-15.6376934-15.7304688
						C26.2969303,158.5761719,26.2813053,158.5761719,26.2656803,158.5761719z"/>
				</g>
				<g>
					<path class="st3" d="M26.2666569,196.7744141c-0.0224609,0-0.0439453,0-0.0664063,0
						c-6.0146484-0.0185547-11.6621094-2.3769531-15.9023438-6.6425781s-6.5664063-9.9267578-6.5478516-15.9394531
						c0.0175781-6.0136719,2.3769529-11.6601563,6.6425781-15.9003906c4.2490234-4.2236328,9.8828125-6.546875,15.8701172-6.546875
						c0.0234375,0,0.0458984,0,0.0693359,0c6.01367,0.0175781,11.6611309,2.3759766,15.9013653,6.6416016
						s6.5664063,9.9257813,6.5488281,15.9394531C48.7461472,186.7177734,38.6514206,196.7744141,26.2666569,196.7744141z
						 M26.2627506,153.2451172c-5.5888672,0-10.8466797,2.1689453-14.8134766,6.1113281
						c-3.9814458,3.9570313-6.1826177,9.2275391-6.1992192,14.8398438
						c-0.0166016,5.6132813,2.1533203,10.8964844,6.1113286,14.8779297s9.2294922,6.1835938,14.8427734,6.2001953
						c0.0205078,0,0.0419922,0,0.0625,0c11.560545,0,20.9814434-9.3857422,21.0156231-20.9521484l0.75,0.0019531l-0.75-0.0019531
						c0.0166016-5.6132813-2.1542969-10.8964844-6.1123047-14.8779297s-9.2294903-6.1826172-14.841795-6.1992188
						C26.3066959,153.2451172,26.284235,153.2451172,26.2627506,153.2451172z"/>
				</g>
			</g>
			<g>
				<path class="st6" d="M16.6690006,180.5654297c-0.1923828,0-0.3837891-0.0732422-0.5302734-0.2197266
					c-0.2929688-0.2929688-0.2929688-0.7675781,0-1.0605469l7.546875-7.546875c0.2929688-0.2929688,0.7675781-0.2929688,1.0605469,0
					l3.9541016,3.9541016l7.5185528-7.5185547c0.2929688-0.2929688,0.7675781-0.2929688,1.0605469,0
					s0.2929688,0.7675781,0,1.0605469l-8.0488262,8.0488281c-0.2929688,0.2929688-0.7675781,0.2929688-1.0605469,0
					l-3.9541016-3.9541016l-7.0166016,7.0166016C17.0527897,180.4921875,16.8613834,180.5654297,16.6690006,180.5654297z"/>
			</g>
			<g>
				<path class="st6" d="M36.985405,173.609375c-0.4140625,0-0.75-0.3359375-0.75-0.75v-3.6386719h-3.6386719
					c-0.4140625,0-0.7499981-0.3359375-0.7499981-0.75s0.3359356-0.75,0.7499981-0.75h4.3886719
					c0.4140625,0,0.75,0.3359375,0.75,0.75v4.3886719C37.735405,173.2734375,37.3994675,173.609375,36.985405,173.609375z"/>
			</g>
		</g>
	</g>
	<g>
		<g>
			<g>
				<rect x="169.0001831" y="154.6422272" class="st0" width="61.1699829" height="73.6699829"/>
			</g>
			<g>
				<path class="st3" d="M230.1699829,229.0625H169.000061c-0.4140625,0-0.75-0.3359375-0.75-0.75v-73.6699219
					c0-0.4140625,0.3359375-0.75,0.75-0.75h61.1699219c0.4140625,0,0.75,0.3359375,0.75,0.75V228.3125
					C230.9199829,228.7265625,230.5840454,229.0625,230.1699829,229.0625z M169.750061,227.5625h59.6699219v-72.1699219H169.750061
					V227.5625z"/>
			</g>
		</g>
		<g>
			<g>
				<path class="st8" d="M192.85849,190.208313v7.0751801h-5.9734039v-5.5884857
					C188.6837158,191.3697968,190.7213135,190.8919525,192.85849,190.208313z"/>
			</g>
			<g>
				<path class="st9" d="M198.8318939,187.7658081v9.5176849H192.85849v-7.0751801
					C194.8031616,189.5843811,196.8341064,188.7879486,198.8318939,187.7658081z"/>
			</g>
			<g>
				<path class="st6" d="M204.8052979,183.883194v13.4002991h-5.9734039v-9.5176849
					C200.8893738,186.7238159,202.9136963,185.4494629,204.8052979,183.883194z"/>
			</g>
			<g>
				<path class="st8" d="M210.778656,176.9673004v20.3161926h-5.9733582V183.883194
					C207.0618896,182.0181274,209.1193695,179.7416382,210.778656,176.9673004z"/>
			</g>
			<g>
				<path class="st7" d="M216.7520599,170.7881012v26.4953918h-5.9734039v-20.3161926
					c1.1017761-1.8318634,2.0309601-3.8827057,2.7212372-6.1791992H216.7520599z"/>
			</g>
			<g>
				<path class="st3" d="M192.8584595,198.0332031h-5.9736328c-0.4140625,0-0.75-0.3359375-0.75-0.75v-5.5878906
					c0-0.3623047,0.2597656-0.6738281,0.6162109-0.7382813c1.9892578-0.359375,3.9667969-0.8515625,5.8789063-1.4628906
					c0.2285156-0.0761719,0.4765625-0.0332031,0.6708984,0.1083984c0.1933594,0.140625,0.3076172,0.3662109,0.3076172,0.6054688
					v7.0751953C193.6084595,197.6972656,193.272522,198.0332031,192.8584595,198.0332031z M187.6348267,196.5332031h4.4736328
					v-5.3095703c-1.4667969,0.4345703-2.9658203,0.8007813-4.4736328,1.09375V196.5332031z"/>
			</g>
			<g>
				<path class="st3" d="M198.8320923,198.0332031h-5.9736328c-0.4140625,0-0.75-0.3359375-0.75-0.75v-7.0751953
					c0-0.3261719,0.2109375-0.6142578,0.5205078-0.7138672c2.0986328-0.6738281,4.0712891-1.4794922,5.8613281-2.3964844
					c0.2314453-0.1181641,0.5097656-0.1083984,0.7333984,0.0283203c0.2226563,0.1357422,0.3583984,0.3789063,0.3583984,0.6396484
					v9.5175781C199.5820923,197.6972656,199.2461548,198.0332031,198.8320923,198.0332031z M193.6084595,196.5332031h4.4736328
					V188.96875c-1.40625,0.6611328-2.9052734,1.2578125-4.4736328,1.7832031V196.5332031z"/>
			</g>
			<g>
				<path class="st3" d="M204.8057251,198.0332031h-5.9736328c-0.4140625,0-0.75-0.3359375-0.75-0.75v-9.5175781
					c0-0.2822266,0.1591797-0.5410156,0.4111328-0.6689453c2.1445313-1.0859375,4.1074219-2.3623047,5.8339844-3.7919922
					c0.2255859-0.1855469,0.5361328-0.2236328,0.7978516-0.1005859c0.2626953,0.1240234,0.4306641,0.3876953,0.4306641,0.6787109
					v13.4003906C205.5557251,197.6972656,205.2197876,198.0332031,204.8057251,198.0332031z M199.5820923,196.5332031h4.4736328
					v-11.1083984c-1.3779297,1.0263672-2.8769531,1.9638672-4.4736328,2.7988281V196.5332031z"/>
			</g>
			<g>
				<path class="st3" d="M210.7783813,198.0332031h-5.9726563c-0.4140625,0-0.75-0.3359375-0.75-0.75v-13.4003906
					c0-0.2236328,0.0996094-0.4355469,0.2724609-0.578125c2.3427734-1.9365234,4.296875-4.1982422,5.8066406-6.7216797
					c0.1728516-0.2900391,0.5185547-0.4277344,0.84375-0.3378906c0.3242188,0.0898438,0.5498047,0.3857422,0.5498047,0.7226563
					v20.3154297C211.5283813,197.6972656,211.1924438,198.0332031,210.7783813,198.0332031z M205.5557251,196.5332031h4.4726563
					v-17.0820313c-1.2802734,1.7451172-2.7773438,3.3457031-4.4726563,4.7822266V196.5332031z"/>
			</g>
			<g>
				<path class="st3" d="M216.7520142,198.0332031h-5.9736328c-0.4140625,0-0.75-0.3359375-0.75-0.75v-20.3154297
					c0-0.1367188,0.0371094-0.2695313,0.1074219-0.3867188c1.1132813-1.8496094,2.0039063-3.8720703,2.6464844-6.0087891
					c0.0947266-0.3173828,0.3867188-0.5341797,0.7177734-0.5341797h3.2519531c0.4140625,0,0.75,0.3359375,0.75,0.75v26.4951172
					C217.5020142,197.6972656,217.1660767,198.0332031,216.7520142,198.0332031z M211.5283813,196.5332031h4.4736328v-24.9951172
					h-1.9501953c-0.640625,1.9921875-1.4882813,3.8847656-2.5234375,5.6367188V196.5332031z"/>
			</g>
			<g>
				<path class="st3" d="M179.9297485,193.1943359c-0.4140625,0-0.75-0.3359375-0.75-0.75s0.3359375-0.75,0.75-0.75
					c1.3984375-0.0009766,34.265625-0.3808594,34.2607422-31.2470703c0-0.4140625,0.3359375-0.75,0.75-0.75
					s0.75,0.3359375,0.75,0.75c0.0029297,16.9267578-9.7558594,24.9394531-17.9414063,28.6796875
					C188.9483032,193.1484375,180.2940063,193.1943359,179.9297485,193.1943359z"/>
			</g>
			<g>
				<path class="st3" d="M179.9297485,193.1953125c-0.4140625,0-0.75-0.3359375-0.75-0.75s0.3359375-0.75,0.75-0.75
					c0.0273438,0,2.8496094-0.0107422,6.8203125-0.7373047c1.9902344-0.3603516,3.9677734-0.8525391,5.8798828-1.4638672
					c2.0976563-0.6738281,4.0703125-1.4794922,5.8603516-2.3964844c2.1474609-1.0869141,4.1103516-2.3632813,5.8369141-3.7929688
					c2.3447266-1.9365234,4.2978516-4.1982422,5.8076172-6.7226563c1.1142578-1.8505859,2.0039063-3.8720703,2.6474609-6.0097656
					c0.9345703-3.046875,1.4082031-6.4521484,1.4082031-10.125c0-0.4140625,0.3359375-0.75,0.75-0.75s0.75,0.3359375,0.75,0.75
					c0,3.8222656-0.4960938,7.375-1.4736328,10.5605469c-0.6767578,2.2539063-1.6181641,4.390625-2.7958984,6.3457031
					c-1.5966797,2.6699219-3.6621094,5.0615234-6.1376953,7.1074219c-1.8115234,1.5-3.8681641,2.8369141-6.1123047,3.9736328
					c-1.859375,0.9521484-3.9072266,1.7890625-6.0830078,2.4873047c-1.9746094,0.6318359-4.0166016,1.140625-6.0693359,1.5117188
					C182.9053345,193.1865234,180.0488892,193.1953125,179.9297485,193.1953125z"/>
			</g>
			<g>
				<path class="st3" d="M219.241272,165.4980469c-0.1923828,0-0.3837891-0.0732422-0.5302734-0.2197266l-3.7705078-3.7705078
					l-3.7705078,3.7705078c-0.2929688,0.2929688-0.7675781,0.2929688-1.0605469,0s-0.2929688-0.7675781,0-1.0605469
					l4.3007813-4.3007813c0.2929688-0.2929688,0.7675781-0.2929688,1.0605469,0l4.3007813,4.3007813
					c0.2929688,0.2929688,0.2929688,0.7675781,0,1.0605469C219.625061,165.4248047,219.4336548,165.4980469,219.241272,165.4980469z
					"/>
			</g>
		</g>
		<g>
			<path class="st3" d="M195.3369751,162.1972656h-20.5c-0.4140625,0-0.75-0.3359375-0.75-0.75s0.3359375-0.75,0.75-0.75h20.5
				c0.4140625,0,0.75,0.3359375,0.75,0.75S195.7510376,162.1972656,195.3369751,162.1972656z"/>
		</g>
		<g>
			<path class="st3" d="M189.3369751,166.3896484h-14.5c-0.4140625,0-0.75-0.3359375-0.75-0.75s0.3359375-0.75,0.75-0.75h14.5
				c0.4140625,0,0.75,0.3359375,0.75,0.75S189.7510376,166.3896484,189.3369751,166.3896484z"/>
		</g>
		<g>
			<path class="st3" d="M222.585022,206.0839844h-46c-0.4140625,0-0.75-0.3359375-0.75-0.75s0.3359375-0.75,0.75-0.75h46
				c0.4140625,0,0.75,0.3359375,0.75,0.75S222.9990845,206.0839844,222.585022,206.0839844z"/>
		</g>
		<g>
			<path class="st3" d="M222.585022,211.8339844h-46c-0.4140625,0-0.75-0.3359375-0.75-0.75s0.3359375-0.75,0.75-0.75h46
				c0.4140625,0,0.75,0.3359375,0.75,0.75S222.9990845,211.8339844,222.585022,211.8339844z"/>
		</g>
		<g>
			<path class="st3" d="M222.585022,217.5839844h-46c-0.4140625,0-0.75-0.3359375-0.75-0.75s0.3359375-0.75,0.75-0.75h46
				c0.4140625,0,0.75,0.3359375,0.75,0.75S222.9990845,217.5839844,222.585022,217.5839844z"/>
		</g>
	</g>
	<g>
		<g>
			<path class="st12" d="M260.4996948,200.3533325v10.8411865h-39.4657745V195.693512
				c0-1.2605133,1.0218506-2.2823486,2.2823639-2.2823486h9.3709717c0.6885223,0,1.3408966,0.3119202,1.7745361,0.8482666
				l1.9718475,2.441452c0.5055084,0.6259155,1.2669373,0.9897003,2.0715027,0.9897003h19.3318024
				C259.3075256,197.6905823,260.4996948,198.8827362,260.4996948,200.3533325z"/>
		</g>
		<g>
			<path class="st3" d="M260.500061,211.9443359h-39.4658203c-0.4140625,0-0.75-0.3359375-0.75-0.75v-15.5009766
				c0-1.671875,1.3603516-3.0322266,3.0322266-3.0322266h9.3710938c0.9199219,0,1.7792969,0.4111328,2.3583984,1.1279297
				l1.9707031,2.4404297c0.3652344,0.4521484,0.9072266,0.7109375,1.4882813,0.7109375h19.3320313
				c1.8818359,0,3.4130859,1.53125,3.4130859,3.4130859v10.8408203
				C261.250061,211.6083984,260.9141235,211.9443359,260.500061,211.9443359z M221.7842407,210.4443359h37.9658203v-10.0908203
				c0-1.0546875-0.8583984-1.9130859-1.9130859-1.9130859h-19.3320313c-1.0361328,0-2.0039063-0.4619141-2.6542969-1.2675781
				l-1.9716797-2.4414063c-0.2929688-0.3623047-0.7265625-0.5703125-1.1914063-0.5703125h-9.3710938
				c-0.8447266,0-1.5322266,0.6875-1.5322266,1.5322266V210.4443359z"/>
		</g>
		<g>
			<rect x="224.918045" y="190.5406494" class="st0" width="31.6975231" height="19.6127224"/>
		</g>
		<g>
			<path class="st3" d="M256.6152954,210.9033203h-31.6972656c-0.4140625,0-0.75-0.3359375-0.75-0.75v-19.6123047
				c0-0.4140625,0.3359375-0.75,0.75-0.75h31.6972656c0.4140625,0,0.75,0.3359375,0.75,0.75v19.6123047
				C257.3652954,210.5673828,257.0293579,210.9033203,256.6152954,210.9033203z M225.6680298,209.4033203h30.1972656v-18.1123047
				h-30.1972656V209.4033203z"/>
		</g>
		<g>
			<path class="st8" d="M260.4996948,204.2998962v20.7997284c0,1.7742615-1.438324,3.2125854-3.2125854,3.2125854h-33.0406036
				c-1.7742615,0-3.2125854-1.438324-3.2125854-3.2125854v-17.4237366c0-1.4705963,1.1921539-2.6627502,2.6627502-2.6627502
				h19.0475922c1.1266479,0,2.2056885-0.4543304,2.9930115-1.2602081l0.9480896-0.9704437
				c0.7155609-0.7324219,1.696228-1.14534,2.7201691-1.14534h8.4314117
				C259.3075256,201.637146,260.4996948,202.8292999,260.4996948,204.2998962z"/>
		</g>
		<g>
			<path class="st3" d="M257.2871704,229.0625h-33.0410156c-2.1845703,0-3.9619141-1.7773438-3.9619141-3.9628906v-17.4238281
				c0-1.8818359,1.5302734-3.4130859,3.4121094-3.4130859h19.0478516c0.9189453,0,1.8144531-0.3769531,2.4570313-1.0341797
				l0.9482422-0.9707031c0.8505859-0.8710938,2.0371094-1.3710938,3.2558594-1.3710938h8.4316406
				c1.8818359,0,3.4130859,1.53125,3.4130859,3.4130859v20.7998047
				C261.250061,227.2851563,259.4727173,229.0625,257.2871704,229.0625z M223.6963501,205.7626953
				c-1.0546875,0-1.9121094,0.8583984-1.9121094,1.9130859v17.4238281c0,1.3583984,1.1044922,2.4628906,2.4619141,2.4628906
				h33.0410156c1.3583984,0,2.4628906-1.1044922,2.4628906-2.4628906v-20.7998047
				c0-1.0546875-0.8583984-1.9130859-1.9130859-1.9130859h-8.4316406c-0.8173828,0-1.6123047,0.3349609-2.1826172,0.9189453
				l-0.9492188,0.9716797c-0.921875,0.9443359-2.2089844,1.4853516-3.5292969,1.4853516H223.6963501z"/>
		</g>
		<g>
			<path class="st3" d="M252.694397,195.3662109h-24.3105469c-0.4140625,0-0.75-0.3359375-0.75-0.75s0.3359375-0.75,0.75-0.75
				h24.3105469c0.4140625,0,0.75,0.3359375,0.75,0.75S253.1084595,195.3662109,252.694397,195.3662109z"/>
		</g>
		<g>
			<path class="st3" d="M249.9004517,198.8769531h-21.5166016c-0.4140625,0-0.75-0.3359375-0.75-0.75s0.3359375-0.75,0.75-0.75
				h21.5166016c0.4140625,0,0.75,0.3359375,0.75,0.75S250.3145142,198.8769531,249.9004517,198.8769531z"/>
		</g>
	</g>
	<g>
		<g>
			<path class="st0" d="M117.8926315,53.75c-0.1923828,0-0.3837891-0.0732422-0.5302734-0.2197266
				c-0.2929688-0.2929688-0.2929688-0.7675781,0-1.0605469l10.8515701-10.8525391c0.28125-0.28125,0.7792969-0.28125,1.0605469,0
				l5.9179688,5.9179688l11.0439453-11.0429688c0.2929688-0.2929688,0.7675781-0.2929688,1.0605469,0
				s0.2929688,0.7675781,0,1.0605469l-11.5742188,11.5732422c-0.2929688,0.2929688-0.7675781,0.2929688-1.0605469,0
				l-5.9179688-5.9179688L118.422905,53.5302734C118.2764206,53.6767578,118.0850143,53.75,117.8926315,53.75z"/>
		</g>
		<g>
			<path class="st0" d="M147.1065063,43.7480469c-0.4140625,0-0.75-0.3359375-0.75-0.75V37.4375h-5.5605469
				c-0.4140625,0-0.75-0.3359375-0.75-0.75s0.3359375-0.75,0.75-0.75h6.3105469c0.4140625,0,0.75,0.3359375,0.75,0.75v6.3105469
				C147.8565063,43.4121094,147.5205688,43.7480469,147.1065063,43.7480469z"/>
		</g>
	</g>
</g>
</svg>
