<?xml version="1.0" encoding="utf-8"?>
<!-- Generator: Adobe Illustrator 23.0.2, SVG Export Plug-In . SVG Version: 6.00 Build 0)  -->
<svg version="1.1" id="Layer_1" xmlns="http://www.w3.org/2000/svg" xmlns:xlink="http://www.w3.org/1999/xlink" x="0px" y="0px"
	 viewBox="0 0 550 550" style="enable-background:new 0 0 550 550;" xml:space="preserve">
<style type="text/css">
	.st0{fill:#252466;}
	.st1{fill:#E65365;}
</style>
<title>17314 - Website Analytics-</title>
<g>
	<g id="_17314_-_Website_Analytics_">
		<path class="st0" d="M323,79h192V55H35v64h480V95H323c-4.4,0-8-3.6-8-8S318.6,79,323,79z M82.8,88.6c-0.1,0.5-0.3,1-0.4,1.5
			c-0.2,0.5-0.4,0.9-0.7,1.4c-0.6,0.9-1.3,1.6-2.2,2.2c-0.4,0.3-0.9,0.5-1.4,0.7c-0.5,0.2-1,0.3-1.5,0.4c-1,0.2-2.1,0.2-3.1,0
			c-0.5-0.1-1-0.3-1.5-0.4c-0.5-0.2-0.9-0.4-1.4-0.7c-0.9-0.6-1.6-1.3-2.2-2.2c-0.3-0.4-0.5-0.9-0.7-1.4c-0.2-0.5-0.3-1-0.4-1.5
			c-0.2-1-0.2-2.1,0-3.1c0.1-0.5,0.3-1,0.4-1.5c0.2-0.5,0.4-0.9,0.7-1.4c0.6-0.9,1.3-1.6,2.2-2.2c0.4-0.3,0.9-0.5,1.4-0.7
			c2-0.8,4.2-0.8,6.1,0c0.5,0.2,0.9,0.4,1.4,0.7c0.9,0.6,1.6,1.3,2.2,2.2c0.3,0.4,0.5,0.9,0.7,1.4c0.2,0.5,0.3,1,0.4,1.5
			C83.1,86.5,83.1,87.5,82.8,88.6z M122.8,88.6c-0.1,0.5-0.3,1-0.4,1.5c-0.2,0.5-0.4,0.9-0.7,1.4c-0.6,0.9-1.3,1.6-2.2,2.2
			c-0.4,0.3-0.9,0.5-1.4,0.7c-0.5,0.2-1,0.3-1.5,0.4c-1,0.2-2.1,0.2-3.1,0c-0.5-0.1-1-0.3-1.5-0.4c-0.5-0.2-0.9-0.4-1.4-0.7
			c-0.9-0.6-1.6-1.3-2.2-2.2c-0.3-0.4-0.5-0.9-0.7-1.4c-0.2-0.5-0.3-1-0.4-1.5c-0.2-1-0.2-2.1,0-3.1c0.1-0.5,0.3-1,0.4-1.5
			c0.2-0.5,0.4-0.9,0.7-1.4c0.6-0.9,1.3-1.6,2.2-2.2c0.4-0.3,0.9-0.5,1.4-0.7c2-0.8,4.2-0.8,6.1,0c0.5,0.2,0.9,0.4,1.4,0.7
			c0.4,0.3,0.8,0.6,1.2,1c0.4,0.4,0.7,0.8,1,1.2c0.3,0.4,0.5,0.9,0.7,1.4c0.2,0.5,0.3,1,0.4,1.5C123.1,86.5,123.1,87.5,122.8,88.6
			L122.8,88.6z M162.8,88.6c-0.1,0.5-0.3,1-0.4,1.5c-0.2,0.5-0.4,0.9-0.7,1.4c-0.6,0.9-1.3,1.6-2.2,2.2c-0.4,0.3-0.9,0.5-1.4,0.7
			c-0.5,0.2-1,0.3-1.5,0.4c-1,0.2-2.1,0.2-3.1,0c-0.5-0.1-1-0.3-1.5-0.4c-0.5-0.2-0.9-0.4-1.4-0.7c-0.9-0.6-1.6-1.3-2.2-2.2
			c-0.3-0.4-0.5-0.9-0.7-1.4c-0.2-0.5-0.4-1-0.4-1.5c-0.2-1-0.2-2.1,0-3.1c0.1-0.5,0.3-1,0.4-1.5c0.2-0.5,0.4-0.9,0.7-1.4
			c0.6-0.9,1.3-1.6,2.2-2.2c0.4-0.3,0.9-0.5,1.4-0.7c2-0.8,4.2-0.8,6.1,0c0.5,0.2,0.9,0.4,1.4,0.7c0.9,0.6,1.6,1.3,2.2,2.2
			c0.3,0.4,0.5,0.9,0.7,1.4c0.2,0.5,0.4,1,0.4,1.5C163.1,86.5,163.1,87.5,162.8,88.6z"/>
		<rect x="107" y="359" class="st1" width="32" height="104"/>
		<rect x="203" y="311" class="st1" width="32" height="152"/>
		<rect x="299" y="295" class="st1" width="32" height="168"/>
		<rect x="395" y="263" class="st1" width="32" height="200"/>
		<path class="st1" d="M443,479H83c-4.4,0-8,3.6-8,8s3.6,8,8,8h360c4.4,0,8-3.6,8-8S447.4,479,443,479z"/>
		<path class="st0" d="M35,375h56v-24c0-4.4,3.6-8,8-8h48c4.4,0,8,3.6,8,8v24h32v-72c0-4.4,3.6-8,8-8h48c4.4,0,8,3.6,8,8v72h32v-88
			c0-4.4,3.6-8,8-8h48c4.4,0,8,3.6,8,8v88h32V255c0-4.4,3.6-8,8-8h48c4.4,0,8,3.6,8,8v120h72V135H35V375z M123,247
			c7.3,0,14.3,2.5,20,7l46.4-34.8c-6.8-16.3,1-35,17.3-41.8s35,1,41.8,17.3c1.6,3.9,2.4,8,2.4,12.2l34.9,8.8
			c8.5-15.5,27.9-21.2,43.4-12.7c4,2.2,7.5,5.2,10.2,8.8l39.7-16.4c-0.2-1.5-0.3-2.9-0.3-4.4c0-17.7,14.3-32,32-32
			c17.7,0,32,14.3,32,32c0,17.7-14.3,32-32,32c-10.1,0-19.5-4.7-25.6-12.8l-39.7,16.4c0.2,1.5,0.3,2.9,0.3,4.4
			c0,17.7-14.2,32-31.9,32.1s-32-14.2-32.1-31.9l0,0l-34.9-8.8c-8.5,15.5-27.9,21.2-43.4,12.7c-1.6-0.9-3.2-1.9-4.6-3.1l-46.4,34.8
			c6.7,16.3-1.1,35-17.4,41.8s-35-1.1-41.8-17.4c-6.7-16.3,1.1-35,17.4-41.8C114.7,247.8,118.8,247,123,247z"/>
		<path class="st1" d="M396.3,197.2c3.4,8.2,12.9,12,21,8.6s12-12.9,8.6-21c-3.4-8.2-12.9-12-21-8.6c-8.1,3.4-12,12.8-8.6,20.9
			L396.3,197.2z"/>
		<path class="st1" d="M314,247c8.8,0,16-7.2,16-16c0-2.1-0.4-4.2-1.2-6.1l0-0.1c-3.4-8.1-12.8-12-21-8.5c-4.6,1.9-8,5.9-9.3,10.7
			c0,0,0,0.1,0,0.1c-0.3,1.3-0.5,2.6-0.5,3.9C298,239.8,305.2,247,314,247z"/>
		<path class="st1" d="M123,295c8.8,0,16-7.2,16-16c0-3.4-1.1-6.8-3.2-9.6l0,0c-5.3-7.1-15.3-8.5-22.4-3.3
			c-7.1,5.3-8.5,15.3-3.3,22.4C113.2,292.6,117.9,295,123,295z"/>
		<path class="st1" d="M206.2,216.6c5.3,7.1,15.3,8.5,22.4,3.2c2.9-2.2,5-5.3,5.9-8.8c0,0,0-0.1,0-0.1c0.3-1.3,0.5-2.6,0.5-3.9
			c0-8.8-7.2-16-16-16c-8.8,0-16,7.2-16,16C203,210.4,204.1,213.8,206.2,216.6C206.2,216.6,206.2,216.6,206.2,216.6z"/>
	</g>
</g>
</svg>
