<?xml version="1.0" encoding="utf-8"?>
<!-- Generator: Adobe Illustrator 27.8.1, SVG Export Plug-In . SVG Version: 6.00 Build 0)  -->
<svg version="1.1" id="Layer_1" xmlns="http://www.w3.org/2000/svg" xmlns:xlink="http://www.w3.org/1999/xlink" x="0px" y="0px"
	 viewBox="0 0 512 512" style="enable-background:new 0 0 512 512;" xml:space="preserve">
<style type="text/css">
	.st0{fill:#0F97FB;}
	.st1{fill:#2C426B;}
	.st2{fill-rule:evenodd;clip-rule:evenodd;fill:#0F97FB;}
</style>
<g>
	<path class="st1" d="M365.12,351.84h93.43c11.96,0,21.74,9.78,21.74,21.77v57.83c0,11.99-9.78,21.74-21.74,21.74h-93.43
		c-11.99,0-21.77-9.75-21.77-21.74v-57.83C343.35,361.62,353.13,351.84,365.12,351.84L365.12,351.84z M389.47,480.5
		c-10.52,0-10.52-16.02,0-16.02h44.7c10.52,0,10.52,16.02,0,16.02H389.47z M458.55,367.83h-93.43c-3.15,0-5.75,2.64-5.75,5.78v57.83
		c0,3.15,2.61,5.75,5.75,5.75h93.43c3.15,0,5.75-2.61,5.75-5.75v-57.83C464.3,370.46,461.7,367.83,458.55,367.83L458.55,367.83z"/>
	<path class="st0" d="M229.77,291.01h84.76c13.55,0,24.55-11,24.55-24.58c0-13.55-11-24.55-24.55-24.55
		c-4.03,0-7.82,0.88-11.37,2.75c-5.64,2.92-12.16-1.56-11.65-7.74c4.48-31.41-38.07-52.87-61.74-27.1
		c-6.75,7.37-10.09,17.15-9.27,27.1c0.57,6.6-6.69,10.86-12.16,7.46c-9.35-4.59-20.81-2.69-28.2,4.73c-9.55,9.52-9.55,25.2,0,34.72
		c4.42,4.45,10.57,7.2,17.35,7.2c10.86,0,20.44-7.12,23.56-17.52c0.85-3.51,4-6.12,7.77-6.12h61.71c10.52,0,10.52,16.02,0,16.02
		h-56.15C233.08,286.1,231.55,288.65,229.77,291.01L229.77,291.01z M314.52,307H197.48c-11.2,0-21.34-4.54-28.69-11.88
		c-15.73-15.76-15.73-41.61,0-57.37c9.5-9.47,22.99-13.63,36.11-11.17c1.5-10.52,6.21-20.07,13.12-27.58
		c20.41-22.25,55.53-22.25,75.94,0c6.92,7.51,11.62,17.06,13.12,27.58c2.44-0.45,4.93-0.71,7.43-0.71
		c22.39,0,40.56,18.17,40.56,40.56C355.08,288.85,336.92,307,314.52,307L314.52,307z"/>
	<path class="st1" d="M269.62,135.95c-10.43-1.16-8.7-17.04,1.76-15.87c31.63,3.54,60.01,17.86,81.35,39.2
		c21.34,21.32,35.66,49.69,39.2,81.35c0.51,4.73-3.2,8.84-7.94,8.84l-24.01,0.03c-10.52,0-10.52-16.02,0-16.02h14.74
		c-4.59-24.32-16.47-46.06-33.31-62.9C322.57,151.71,297.51,139.07,269.62,135.95L269.62,135.95z M376.06,269.63
		c1.13-10.46,17.01-8.7,15.87,1.76c-7.09,63.3-57.26,113.44-120.56,120.53c-4.73,0.54-8.87-3.17-8.87-7.94v-60.01
		c0-4.42,3.57-7.99,7.99-7.99s7.99,3.57,7.99,7.99v50.74C330.37,364.96,370.17,322.13,376.06,269.63L376.06,269.63z M242.38,376.05
		c10.43,1.16,8.67,17.04-1.76,15.87c-63.3-7.09-113.47-57.23-120.56-120.53c-0.6-5.44,3.74-8.73,7.94-8.9h17.77
		c10.52,0,10.52,16.02,0,16.02h-8.5C147.05,330.38,189.85,370.18,242.38,376.05L242.38,376.05z M135.94,242.39
		c-1.13,10.43-17.01,8.67-15.87-1.76c7.09-63.3,57.26-113.47,120.56-120.56c5.41-0.6,8.76,3.49,8.87,7.94v37.84
		c0,10.52-15.99,10.52-15.99,0v-28.57C181.63,147.04,141.83,189.87,135.94,242.39L135.94,242.39z"/>
	<path class="st0" d="M370.87,136.69c-7.46,7.46-18.77-3.85-11.31-11.31c18.26-18.26,48.22-18.26,66.47,0
		c7.43,7.46-3.88,18.77-11.31,11.31C402.68,124.64,382.92,124.64,370.87,136.69L370.87,136.69z M352.14,117.95
		c-7.46,7.46-18.77-3.88-11.34-11.31c28.57-28.54,75.43-28.54,103.97,0c7.46,7.43-3.88,18.77-11.31,11.31
		C411.13,95.62,374.47,95.62,352.14,117.95L352.14,117.95z M332.52,98.34c-7.43,7.46-18.77-3.86-11.31-11.31
		c39.32-39.32,103.83-39.32,143.18,0c7.43,7.46-3.88,18.77-11.31,11.31C419.94,65.23,365.63,65.23,332.52,98.34L332.52,98.34z"/>
	<path class="st1" d="M52.88,31.18h93.4c11.99,0,21.77,9.78,21.77,21.77v57.83c0,11.99-9.78,21.77-21.77,21.77h-93.4
		c-11.99,0-21.77-9.78-21.77-21.77V52.95C31.11,40.96,40.89,31.18,52.88,31.18L52.88,31.18z M77.23,159.85
		c-10.52,0-10.52-15.99,0-15.99h44.7c10.52,0,10.52,15.99,0,15.99H77.23z M146.29,47.2h-93.4c-3.15,0-5.78,2.61-5.78,5.75v57.83
		c0,3.15,2.64,5.75,5.78,5.75h93.4c3.17,0,5.78-2.61,5.78-5.75V52.95C152.07,49.81,149.46,47.2,146.29,47.2L146.29,47.2z"/>
	<path class="st0" d="M264.01,473.73c0,10.52-16.02,10.52-16.02,0v-58.96c0-10.52,16.02-10.52,16.02,0V473.73z M38.29,263.99
		c-10.54,0-10.54-15.99,0-15.99h58.93c10.52,0,10.52,15.99,0,15.99H38.29z M247.99,38.27c0-10.52,16.02-10.52,16.02,0v58.96
		c0,10.52-16.02,10.52-16.02,0V38.27z M473.72,248.01c10.54,0,10.54,15.99,0,15.99h-58.93c-10.54,0-10.54-15.99,0-15.99H473.72z"/>
	<path class="st0" d="M69.89,359.18h7.46v-9.44c0-10.54,15.99-10.54,15.99,0v9.44h14.17v-9.44c0-10.54,15.99-10.54,15.99,0v9.44
		h7.46c11.79,0,21.43,9.61,21.43,21.4v7.48h9.44c10.52,0,10.52,15.99,0,15.99h-9.44v14.17h9.44c10.52,0,10.52,15.99,0,15.99h-9.44
		v7.46c0,11.79-9.64,21.43-21.43,21.43h-7.46v9.44c0,10.52-15.99,10.52-15.99,0v-9.44H93.33v9.44c0,10.52-15.99,10.52-15.99,0v-9.44
		h-7.46c-11.82,0-21.43-9.64-21.43-21.43v-7.46h-9.44c-10.54,0-10.54-15.99,0-15.99h9.44v-14.17h-9.44c-10.54,0-10.54-15.99,0-15.99
		h9.44v-7.48C48.46,368.79,58.07,359.18,69.89,359.18L69.89,359.18z M130.95,375.17H69.89c-2.98,0-5.44,2.47-5.44,5.41v61.09
		c0,2.98,2.47,5.41,5.44,5.41h61.06c2.98,0,5.41-2.44,5.41-5.41v-61.09C136.36,377.63,133.93,375.17,130.95,375.17L130.95,375.17z"
		/>
</g>
</svg>
